/* XPM */
static char *b388f354bca340f9c290f3ca3bfb549fUetwF2jo12EVIar9[] = {
/* columns rows colors chars-per-pixel */
"64 64 177 2 ",
"   c #44372C",
".  c #47382D",
"X  c #4C3A2C",
"o  c #563C27",
"O  c #5C3E26",
"+  c #543D2C",
"@  c #5A3F2B",
"#  c #4C3C31",
"$  c #523F31",
"%  c #603F26",
"&  c #56412D",
"*  c #5C422D",
"=  c #554131",
"-  c #5B4432",
";  c #5F4934",
":  c #644226",
">  c #6C4426",
",  c #64442C",
"<  c #6B462A",
"1  c #66482F",
"2  c #6C492D",
"3  c #724625",
"4  c #734826",
"5  c #7B4B26",
"6  c #744C2C",
"7  c #7B4E2C",
"8  c #7E512D",
"9  c #624631",
"0  c #684731",
"q  c #654832",
"w  c #6B4A31",
"e  c #744D31",
"r  c #794F30",
"t  c #7C5130",
"y  c #A45C1F",
"u  c #B6671E",
"i  c #BD6A1D",
"p  c #834D25",
"a  c #8D4D22",
"s  c #804E29",
"d  c #865026",
"f  c #8B5326",
"g  c #83522C",
"h  c #8B552C",
"j  c #87582F",
"k  c #945524",
"l  c #995621",
"z  c #965A26",
"x  c #9D5B24",
"c  c #935729",
"v  c #935A2C",
"b  c #9C5D2B",
"n  c #835430",
"m  c #A55F25",
"M  c #A25E29",
"N  c #9F612D",
"B  c #A66226",
"V  c #AB6325",
"C  c #A4612A",
"Z  c #AC652A",
"A  c #B36623",
"S  c #B46A26",
"D  c #BB6D23",
"F  c #B46C2B",
"G  c #B96E29",
"H  c #BE7224",
"J  c #BD732B",
"K  c #C06D1D",
"L  c #C5711F",
"P  c #CA761F",
"I  c #CC791F",
"U  c #C06F22",
"Y  c #C47423",
"T  c #CA7622",
"R  c #C57A26",
"E  c #CD7B24",
"W  c #C47629",
"Q  c #C87729",
"!  c #C47A2A",
"~  c #CC7C29",
"^  c #D07E24",
"/  c #D07F2B",
"(  c #D07F28",
")  c #CF8227",
"_  c #CE8025",
"`  c #CF812B",
"'  c #CE822A",
"]  c #CD822B",
"[  c #D18127",
"{  c #D08427",
"}  c #D18427",
"|  c #D48427",
" . c #D58527",
".. c #D48425",
"X. c #D88725",
"o. c #D78A27",
"O. c #D78925",
"+. c #D88A26",
"@. c #D98A27",
"#. c #D98D26",
"$. c #DA8D27",
"%. c #DA8B26",
"&. c #D18128",
"*. c #D1812B",
"=. c #D18428",
"-. c #D38528",
";. c #D38428",
":. c #D1842B",
">. c #D0842B",
",. c #D3842A",
"<. c #D58528",
"1. c #D58728",
"2. c #D68728",
"3. c #D78728",
"4. c #D4842B",
"5. c #D5842A",
"6. c #D4872A",
"7. c #D5872A",
"8. c #D4872B",
"9. c #D5872B",
"0. c #D7872A",
"q. c #D48529",
"w. c #D68A28",
"e. c #D78B28",
"r. c #D5892B",
"t. c #D4892A",
"y. c #D7892A",
"u. c #D6892B",
"i. c #D58A2B",
"p. c #D78B2B",
"a. c #D5892C",
"s. c #D68A2C",
"d. c #D78C2C",
"f. c #D78C2E",
"g. c #D68A2A",
"h. c #D88A28",
"j. c #D88B28",
"k. c #D98A2A",
"l. c #D88B2A",
"z. c #D88A2B",
"x. c #D98D2A",
"c. c #D98D2B",
"v. c #DA8D2A",
"b. c #D98E2B",
"n. c #DA8E2B",
"m. c #D98A2C",
"M. c #DA8E2C",
"N. c #D88D2E",
"B. c #D98D2E",
"V. c #D88C2E",
"C. c #DA8C2A",
"Z. c #DD9127",
"A. c #DB902C",
"S. c #D9902E",
"D. c #DB932E",
"F. c #DC932E",
"G. c #DD932E",
"H. c #DC922F",
"J. c #DC942F",
"K. c #DD942F",
"L. c #DF952F",
"P. c #DE962F",
"I. c #DD932B",
"U. c #DF992E",
"Y. c #CC8531",
"T. c #CF8930",
"R. c #DC9531",
"E. c #DC9731",
"W. c #DE9631",
"Q. c #DF9631",
"!. c #DF9932",
"~. c #E0962B",
"^. c #E29A2C",
"/. c #E09931",
"(. c #E29C31",
"). c #E6A132",
"_. c #E8A333",
/* pixels */
"G B.J.W.f.D.s.B.J - = $ $ $ * - v /.*.( 3.C.u.~ F - ; ; = = = - w m.C.F.C.| | ^ C - = @ # $ # = w ,.d.@.#.#.@. .J 1 , , 5 6 < 0 ",
"w t s.D.R.R.B.f.f.J 9 = = - * & ; v 0.~ ~ C.d.t.W v 9 - - - 9 - - j F.R.5.~ E C.u.F 9 - + X # $ = e u.c.u.O.@.#. .S 9 < , 4 , , ",
"9 ; e J.W.f.V.S.S.R.M q 0 9 * - - 0 n ~ W ~ 1.,./ f.Z - 9 - 9 q 9 q j R.,.~ ~ 5.1.u.J w $ @ $ = = # 2 c.C.C.C.c.u.} H 1 @ @ @ 9 ",
"- - ; e B.s.f.V.R.f./ W w 0 0 * - - 9 n Q W *.s.! Z ! F q 0 = = = 9 9 n *.Q ~ 5.u.u.m.W = $ # = = = # 2 c.c.c.c.u._ =.G @ # # $ ",
"- w q ; r f.R.W.!.W.~ =.] w w w ; 9 9 q n Q / 4.Q / *.s.Z q ; 9 , 9 9 9 e ( ( *.1.4.u.1.J = = = = #   # w T.B.C.) E }  .M $ @ # ",
"- - - ; ; r V.R.W.R.Q =.D.S.J w w w 0 0 - n T.a.Y.~ *.4.:.! r ; @ 9 9 9 0 j S 1.( ,.1.4.5.F = $ # #   = = n 1.4.} ~  .d.1.F $ + ",
"- = - - - = r f.u.,.! u.!.B.c.e w w q 0 0 q n V.4.W m.*.W./.J w 0 ; = ; ; - r m.,.1.1.=.( ^ J $ =   = = # # n ~ _ ~ u.O.,.^ Z @ ",
"q ; - 9 ; - q j ~ J Q 1.F.P.f.G e e w 0 r e q e 0.H.4.Q Q ! ~ F n 0 - ; 9 9 9 r u.m.4.4.^ ,.~ b # # = = = # = b W E O.[ ,.~ ~ S ",
"W w ; 0 ; 9 w r g C C 5.m.M.4.F.J e 0 w w w q ; t B.P.4.,.~ Q ~ W e r w e q q - r 5.( 5.^ ,.~ T h 9 - , $ $ $ q c D u. .~ E E _ ",
"~ ] 9 ; w 0 ; w n n C ! M.M.B.C.H.~ q w w 9 q q 0 n F.B.=.( W E ~ Y.w e w q 9 q - r ( 5.,.^ ^ ,.A M * = - $ = = 1 7 E  .[ E E ~ ",
"' d.] 0 9 9 q w w t b ~ m.M.F.P.M./.~ 0 ; q q ; - q n B.B.W Q ,.,.4.! n e n 0 9 9 = 0 ^ ~ | ^ ,.Q ~ F * $ = = @ @ = 7 [ } E { E ",
"~ t.T.] w 9 w w e t n F B.M.F.F.R.R.S.W 9 q q - = ; q b ~.W 1.~ ~ 0.R.~ r 9 9 = = @ $ n 1.,.( ^ ~ ( ^ G 9 - = = $ 0 = h E { { _ ",
"_ =.u.C.! w q q e w e n ,.4.B.F.B.H.m.M.J q 0 ; w ; q w v ! Q ~ *.~ ` D.! e 9 @ = - = - n 5.,.^ ^ ( ( ( G c 1 $ # * 2 = g ~ E [ ",
"~ u.u.c.W.Y.q q q w e w w v 1././.H.M.A.W.~ e e q = q 0 - e ~ ~ *.` 1.B.F.Z - - $ ; = = @ r | 5.~ ^ ^ 5. .[ V @ $ # < * + 5 E [ ",
"_ d.S.(.!.(.Y.9 q q q q w w b /.(.(.M.~.R.R.~ w 9 9 q w 0 = n ~ ` s.*.F.F.( G $ 9 9 $ 0 $ - 7 C.| ( C.X.C.5.Y 6 @ = 7 $ & , d E ",
"u.} !.).(.!._.T.q w w e w w w N (./.~.F.F.M.B.! w 0 w w w 9 e v ~ m.` W.~.m.~ G 9 9 0 2 ; w 9 e ~ C.3.C.3.X.Q M * - * # @ < & c ",
"h D.P._.(.!.!._.T.e w 0 w w ; w N /.J.b.D.c.C.I.~ 9 0 t 9 9 9 w M F.~.F...Q ^ 3.G 7 < e < 9 e 0 s W M.^ C. .Q T m 1 $ + % 9 # @ ",
"- 7 c.P.).!.!.(.(.J w w q 0 w q e v S.D.u.u.| n.F.~ w e ; - 0 9 q h n.M.( Q ~ 5.X.J w = $ v 6 = = g ~ T 1.| ^ E T m e @ @ $ $ % ",
"* - v c.P.(.(.P.W.' W 8 w q w w q w v i.c.,.5.c.C.3.! w 9 ; - ; 9 g v / | ..( ..1.5.G - ; 2 9 $ - 9 s Z ( 5.E E T T S , + + @ @ ",
"2 6 w h S.P.P.J.P.P.s.Q e w 9 w w q e N c. .n.n.C.3.m.~ q w 9 - 0 e h 7 5.( ( ..X.5.1.Q = $ = = e < 0 7 ^ 1.^ E Q T 3.A @ + + - ",
"1 8 w 2 6 e.S.I.n.n.n.1.Q w w - q e w n M *.M.n.n.k.X.M.~ r 0 9 2 6 g 6 7 G ( 3.3.5.5.| W 1 2 $ 6 < , - d Q ^ | E T #. .m * , X ",
"1 2 9 9 ; 8 ' I.n.C.n.| B.! w e 9 0 e h e b 3.k.k.n.3.3.C.W 6 0 6 w 0 e 9 s 5.@.^ E C.@.1.Q $ $ = = $ 1 # 6 C E E Y C.O.( m @ @ ",
"* = - * 2 = 1 c.n.c.u.C.P.c.! 7 w w e 2 7 t c 1.c.C.n.c.c.C.G r t 6 9 6 6 - h 3.^ | k.n.X.X.F , - , @ 2 - 1 s Y ~ Y u.@. .E Z @ ",
"- 6 = - 0 9 - g I.F.C.[ I.I.~.G 6 6 7 e 7 7 e b ^ k.C.I.I.~.~.W 1 1 1 0 9 9 $ s 3.@.@.%.k.X.5.G * $ 9 $ $ @ @ e T Y #.Z. .E  .Z ",
"D 1 $ - * ; = 6 v P.d.} ~.I.~.n.~ 6 w 7 e 6 e e C ( n.~.~.~.~.^.W 8 g 0 9 6 = - 7 n.%.C.C.%.5.%.F = * $ 1 $ * = 7 U #.I. .E T E ",
"[ J = * - - 1 1 g C E c.n.n.n.I.C.! e 2 6 e e 7 M W 3.n.k.n.^.~.#.] 9 e 9 1 = 2 9 e k.%.@.%.X.@.Y D 2 # + * * # , c #.I. .E L E ",
"} O.J * - = = * e 7 c ! I.%.I.n.S.c.! h s r r 7 b Z G ~.~.~.~.~.c.I.~ 6 = - = - $ < 7 C.@.@.@...E 1.D * + @ + * , 5 c u.} T T T ",
"[ u. .! - = = 9 0 g 6 c  .n.c.C.@.c.E Z 7 r s j h h c v ~.~.$.n.c.I.^.f.0 9 * 1 = , 9 s %.%.@...T | 5.D 1 + $ + < < < z A T T E ",
"[ I.I. .W * = 9 1 7 6 g N C.1.( @.@.Y U Z g 7 s e h 2 6 g F.%.k.n.n.^._.c.2 * 9 , - = + 2 @. .E W | | X.Y & & & , X @ < p A T _ ",
"E F.c.c.1.W * & * 0 6 8 g b Y T [ @.Q Y Y Z h c g s 7 w 1 h [ | k.~.~.(.).E 9 * = $ * - * 7  .[  .| X... .A + * , , & < + 6 T I ",
"^ B.c.c.d.C.W 1 - 1 6 8 6 g M ~  .u. .E ~ U S h n g g 6 2 = h 5.| n.I.^._.n.Q * = 9 $ < * < 2 S E ..@.E ....D * < @ < , * , k [ ",
"^ 1.@.c.c.c.c.~ 1 6 2 6 6 d z b O. .@.I.^ 5.Q S s t r 0 9 = g c U ~.~.^.I.I.#.! * $ 1 1 1 $ + 6 E  .X. . . .[ Y h p < > & , : R ",
"2 } e.e.#.c.c.c.W 6 6 8 6 8 h h C [ u.E ^ k...Y C c 7 2 < 6 g g f k.~.n.@.X.~.| G @ e 6 2 9 7 @ 0 ~ 3.@.@.@.$.%.^ A 4 @ % @ @ * ",
"+ 6 O.d.I.^.I.P.D.! d g 6 8 r 6 g c ~ ,.U ~.n.k.Y S 8 7 7 - 8 6 g M C.I.n.^ ^ ^ ^ V @ 9 < 2 , 9 $ g X.@.I.$.$.Z.I.E k * 1 % @ + ",
"& = 8 ^.I.).^.^.P.I.! g 2 6 7 g g c g W U 0.n.~.C.E V 7 9 6 9 7 6 n C I.k.| ^ | | 3.S * 0 6 9 @ $ # < J @.#.Z.I.#.O.V : % 3 @ + ",
"@ * 2 B ^.~.).).).^.D.Y 8 6 7 g 2 6 9 c T 1.%.k.1. .~ Z = - < 2 7 7 7 M U X.| ^ X.X.%.M 1 < * $ $ @ . 1 ~ Z.Z.I.~.#. .m @ < O + ",
"& + = 1 V I.^._.).~.Z.S.Q g 6 6 6 7 7 1 7 ( C.I.n.X.X.%.M 6 , 2 w 2 r c C S E ^ | X...| J * = . = + * # 7 X.$.Z.^.Z.~.%.G , @ + ",
"* & & * 1 C I.^.~.U.I.Z.^.R 6 7 1 8 6 1 = c E n.C.~.X.E E h = , < e 6 h c h D  .%.%.$.X. .F & & # $ $ $ + c #.~.^.~.Z...^ D , + ",
"& , & & & * f #.U.I.O.I.^.^.J 6 * 1 1 2 9 , 6 @.@.@...%.Q Y M * 9 7 7 6 2 < g  .n.~.n.Z.I.Z.R 2 1 = * X + * m  .Z.@. ...{ T A O ",
"& , + & & & * g Z.I...[ I.~.I.A 1 * * ; 2 0 , s @...@.Z.^ E E m = * < 9 1 = + h @.$.Z.n.#.@.Z.~ 7 , @ + + + < z { P E T K K i x ",
"D < * & & & , * z U.E T E O.Z.I.J 1 8 6 & 1 2 < 8  .| ^ | E ..T D 1 + = $ # # @ b 5.Z.@.%.O.X.%.H 1 & . & X X < k P P P u A D A ",
"e.Y 5 & & & * & , V R D T E n.~.I.] 1 2 = & 1 2 * 7  . .^ ^ ....~ D * # $ + $ + , m ..C.X.%.%.X. .D & X X & X , , l { P D u K u ",
"#.S.Y < : * * * , 6 A _ 1.~  .I.U.^.) 6 2 2 2 * - $ < 5.E T ^ X.$.$.R # * - = * < 6 M [ %.%.X.O.#.@.! & X + : < * 4 f A K U Y P ",
"#.I.d.R > & & * * 2 z R O.@.%.I.U.Z.~.! 7 6 1 & < * = g X.$.X.$.Z.$.$.W * - + = , 2 4 c ^ %.~.%.#.Z.I.H . X 4 4 , * 4 k A P L L ",
"O.Z.Z.Z.{ > < & < 4 6 5 k { Z.U.^.~.#.^.) 6 7 1 , - + = s ..T E X.%.X.~.T + * + * 2 , 6 l  .~.%.@.@.Z.Z.Z , & & < @ 5 7 m ^ P L ",
"w.^.^.^.U.H 1 5 1 1 2 2 4 N Z.~.~.#.~.).#.E h * 9 = @ # + 6 #.L | ~.Z.Z.~.h + & , , , , , d _ O.^ Z.I.Z.Z.A > , < + > 3 p T ^ P ",
"w.U.U.U.U.e._ 4 1 4 * 4 , < B Z.^.^.Z.^.#.I.~ 6 , < $ + + 9 g E E ~.Z.~.X.X.A * @ @ & * * + 5 { O.Z.Z.Z.Z.Z.E , , : , : , 4 x P ",
"w.Z.Z.U.^.I.I.H f < , 2 < < & 4 ).^.I.~.$.O.O.Y 7 + $ # $ X * 8 U C.%.~.~.^ #.A + * & & & 4 & 5 #.Z.I.Z.Z.^.^.~ V 3 > > , 5 : l ",
"B U.Z.U.).Z.Z.O.L f , > 2 , 1 > g ).Z.~.O.O._ ..K 5 + + * : X X * ~ ~.~.~...Z.~.Y * X X X X O & 5 O.Z.#.Z.O.Z.%.I > 4 5 * : X : ",
"4 8 U.^.U.^.^.U._ A 2 * , 5 1 , & 5 _ O.Z.Z...X.X.Y < < , , & . & : O.~.~.X.%.~.^.~ & X o X X X X d Z.$.Z.~.Z.Z._ L k > : o > : ",
"4 > > _ Z.U.).~.#.u 5 * : & , , & & 5 E ..^ I X...{ A 6 + + X * X + * Y ..X.%.Z.Z.Z.R & & X & * + , d %.Z.Z.Z.%.Z...L > o o * o ",
": * & , _ ^.O.U.e._ B f 1 * 4 * < * X d I ^ ^ ..^ { T m , + + * + * + o K ..X.Z.Z.#.O.H > o O & X > 5 x O.O.%.#._ _ _ u > O o o ",
"* & & X > O.} Z.#.O.T D L * & * @ + * + c P P I ..X.X.P y : & o > , + X > _ ..%.Z.Z.%...y > % : : > , k k ..%.%...%.I I A : : o ",
"* & X X & k e.#...{ _ L #.w.4 > , @ + : + p E ^ I ..X.X._ u & o X @ + + o 3 I %.....Z.%.X.K 5 4 < > 4 5 f k Z.#...I ..I E k : : ",
": * o X o & z Z.Z.Z.P I Z.U._ f < , + * . & d ........X.....p o . + . + . . 3 ....X...%.O.X.u 5 < 4 < 5 d k V %.....I ..I a > 3 ",
"O o . X X X o d ~.#._ { Z.U.Z.L f * & + + X & d ....X.X...Z.i d X X + . .   X 5 I ....X.O...I u 5 4 > d d 5 p f I I ^ I I p : l ",
"u o & X X X X X z Z.I ..^.^.U.Z.i 4 & * + : + : k _ .._ ....O.P V @ X . X     X 4 P ....O.O.O.I y 5 4 5 d 5 4 4 l ..I _ I 5 5 i ",
"_ H : * & o o & & 5 L _ Z.Z.^.^.O.A : * & * & * & 5 I _ _ ..I .._ Y + . X     X X 4 _ O.O.I X.X.I y 5 5 5 5 4 > 5 y ..O...l a K ",
"_ O.D * % & X o : o 4 O.Z.Z.^.^.Z...y : + o * & * > f L ..O.I _ { O.L . . . : .     4 O._ I ..I _ K i 5 5 5 : O > : a ..I l 3 L ",
"O.#.Z.y O O X . & * * 5 Z.U.Z.Z.Z.#._ i * * : : * o > k u i L I ..X.O.H X o X X &     > I ..I I I _ #.i 4 4 : : O > 5 l I u y P ",
"_ #.#.O.y : & & o X . o 5 U.#.Z.~.Z.P ..D , * + : > > : 5 u i P I X.X.X.i +   X X &   X > ..I I I P _ ..i 4 5 O % : > O 3 L i _ ",
"I O...O.O.u O & X & X & & > Z.Z.Z.Z.....{ D : : * X : + : a I L I ..%.%._ u   o X o o o > 3 I ..I _ ..O.#.i : O : o O o O 3 i I ",
"I ......O.#.H o X X   .   & 5 Z.O.Z.%...O._ L , + + + & : * a I I ..X.%...I A X o & o o o o > I I ..O.#.#.#._ > o O o % o o 5 I ",
"I ....O.O.O.O.H O o o o X & & d #.O.X...%.%.O.L : X : : O X & a I ....%...^ P D O o o o O o o 3 _ ..O.O.#._ P y : : O : : O % l "
};
